<svg width="16" height="16" viewBox="0 0 16 16" fill="none" xmlns="http://www.w3.org/2000/svg">
<path id="Vector" d="M15.4656 5.31876C15.5109 5.31959 15.5558 5.3114 15.5979 5.29465C15.6399 5.27791 15.6782 5.25295 15.7105 5.22123C15.7428 5.18952 15.7685 5.15169 15.786 5.10995C15.8035 5.06821 15.8125 5.0234 15.8125 4.97814V4.42189C15.8125 4.33155 15.7766 4.24491 15.7127 4.18103C15.6488 4.11715 15.5622 4.08126 15.4719 4.08126H13.7312V2.45001C13.7304 2.34998 13.6903 2.25428 13.6196 2.18354C13.5489 2.11281 13.4531 2.07271 13.3531 2.07189H11.725V0.340639C11.725 0.2503 11.6891 0.16366 11.6252 0.0997806C11.5613 0.035901 11.4747 1.43371e-05 11.3844 1.43371e-05H10.8281C10.74 0.00325156 10.6565 0.0405627 10.5953 0.104095C10.5341 0.167627 10.4999 0.252425 10.5 0.340639V2.08126H8.65624V0.340639C8.65624 0.295644 8.64733 0.251093 8.63002 0.209562C8.6127 0.16803 8.58733 0.130341 8.55537 0.0986696C8.52341 0.0669984 8.48549 0.041973 8.4438 0.0250399C8.40211 0.00810685 8.35748 -0.000398467 8.31249 1.43371e-05H7.76249C7.67215 1.43371e-05 7.58551 0.035901 7.52163 0.0997806C7.45775 0.16366 7.42187 0.2503 7.42187 0.340639V2.08126H5.59062V0.340639C5.59062 0.2503 5.55473 0.16366 5.49085 0.0997806C5.42697 0.035901 5.34033 1.43371e-05 5.24999 1.43371e-05H4.69374C4.64901 1.43371e-05 4.60472 0.00882435 4.56339 0.0259424C4.52206 0.0430604 4.48451 0.0681506 4.45288 0.0997806C4.42125 0.131411 4.39616 0.168961 4.37904 0.210288C4.36193 0.251614 4.35312 0.295908 4.35312 0.340639V2.08126H2.72812C2.62913 2.08121 2.534 2.11966 2.46286 2.18848C2.39171 2.25729 2.35011 2.35108 2.34686 2.45001V4.07189H0.61249C0.522151 4.07189 0.435511 4.10778 0.371631 4.17166C0.307752 4.23554 0.271865 4.32217 0.271865 4.41251V4.96876C0.271865 5.0591 0.307752 5.14574 0.371631 5.20962C0.435511 5.2735 0.522151 5.30939 0.61249 5.30939H2.34686V7.13751H0.61249C0.522151 7.13751 0.435511 7.1734 0.371631 7.23728C0.307752 7.30116 0.271865 7.3878 0.271865 7.47814V8.04377C0.271452 8.08876 0.279957 8.13339 0.296891 8.17508C0.313824 8.21676 0.338849 8.25468 0.37052 8.28664C0.402191 8.31861 0.439881 8.34398 0.481412 8.36129C0.522944 8.3786 0.567494 8.38752 0.61249 8.38751H2.34686V10.2188H0.61249C0.522151 10.2188 0.435511 10.2547 0.371631 10.3185C0.307752 10.3824 0.271865 10.469 0.271865 10.5594V11.1156C0.271865 11.206 0.307752 11.2926 0.371631 11.3565C0.435511 11.4204 0.522151 11.4563 0.61249 11.4563H2.34686V13.075C2.34768 13.175 2.38778 13.2708 2.45852 13.3415C2.52925 13.4122 2.62496 13.4523 2.72499 13.4531H4.35312V15.1938C4.35312 15.2385 4.36193 15.2828 4.37904 15.3241C4.39616 15.3654 4.42125 15.403 4.45288 15.4346C4.48451 15.4663 4.52206 15.4913 4.56339 15.5085C4.60472 15.5256 4.64901 15.5344 4.69374 15.5344H5.24999C5.29472 15.5344 5.33902 15.5256 5.38034 15.5085C5.42167 15.4913 5.45922 15.4663 5.49085 15.4346C5.52248 15.403 5.54757 15.3654 5.56469 15.3241C5.5818 15.2828 5.59062 15.2385 5.59062 15.1938V13.4531H7.42187V15.1938C7.42187 15.2841 7.45775 15.3707 7.52163 15.4346C7.58551 15.4985 7.67215 15.5344 7.76249 15.5344H8.31249C8.40283 15.5344 8.48947 15.4985 8.55335 15.4346C8.61723 15.3707 8.65311 15.2841 8.65311 15.1938V13.4531H10.5V15.1938C10.5 15.2841 10.5359 15.3707 10.5998 15.4346C10.6636 15.4985 10.7503 15.5344 10.8406 15.5344H11.3969C11.4872 15.5344 11.5738 15.4985 11.6377 15.4346C11.7016 15.3707 11.7375 15.2841 11.7375 15.1938V13.4531H13.3656C13.4635 13.4491 13.556 13.4076 13.6241 13.3372C13.6921 13.2668 13.7305 13.1729 13.7312 13.075V11.4531H15.4656C15.5109 11.454 15.5558 11.4458 15.5979 11.429C15.6399 11.4123 15.6782 11.3873 15.7105 11.3556C15.7428 11.3239 15.7685 11.2861 15.786 11.2443C15.8035 11.2026 15.8125 11.1578 15.8125 11.1125V10.5563C15.8125 10.4659 15.7766 10.3793 15.7127 10.3154C15.6488 10.2515 15.5622 10.2156 15.4719 10.2156H13.7312V8.38751H15.4656C15.5111 8.38835 15.5564 8.38006 15.5986 8.36312C15.6409 8.34618 15.6793 8.32094 15.7116 8.28889C15.744 8.25685 15.7696 8.21864 15.7869 8.17654C15.8042 8.13444 15.8129 8.08929 15.8125 8.04377V7.49064C15.8142 7.44434 15.8064 7.39817 15.7897 7.35497C15.773 7.31177 15.7476 7.27243 15.7151 7.23938C15.6826 7.20633 15.6438 7.18024 15.6009 7.16273C15.558 7.14521 15.5119 7.13663 15.4656 7.13751H13.7312V5.31876H15.4656ZM12.45 12.1938H3.62499V3.35626H12.45V12.1938Z" fill="#00E0FF"/>
</svg>
