<svg width="24" height="24" viewBox="0 0 24 24" fill="none" xmlns="http://www.w3.org/2000/svg">
<g id="Frame 13">
<g id="Group">
<path id="Vector" d="M17.7927 11.8584L15.1592 7.3048C15.1058 7.21222 15.0289 7.13532 14.9364 7.08183C14.8438 7.02833 14.7388 7.00011 14.6319 7H9.37118C9.26428 7.00011 9.15929 7.02833 9.06674 7.08183C8.97419 7.13532 8.89733 7.21222 8.84389 7.3048L6.21045 11.8584C6.15695 11.9511 6.12878 12.0562 6.12878 12.1632C6.12878 12.2702 6.15695 12.3754 6.21045 12.468L8.84084 17.0217C8.89429 17.1142 8.97114 17.1911 9.06369 17.2446C9.15624 17.2981 9.26123 17.3264 9.36813 17.3265H14.6319C14.7388 17.3264 14.8438 17.2981 14.9364 17.2446C15.0289 17.1911 15.1058 17.1142 15.1592 17.0217L17.7927 12.468C17.8462 12.3754 17.8743 12.2702 17.8743 12.1632C17.8743 12.0562 17.8462 11.9511 17.7927 11.8584ZM12.0016 14.4004C11.5591 14.4004 11.1266 14.2692 10.7586 14.0234C10.3907 13.7776 10.104 13.4282 9.93466 13.0194C9.76534 12.6106 9.72103 12.1608 9.80735 11.7268C9.89368 11.2928 10.1068 10.8942 10.4196 10.5813C10.7325 10.2684 11.1311 10.0553 11.5651 9.96902C11.9991 9.8827 12.4489 9.927 12.8577 10.0963C13.2665 10.2657 13.6159 10.5524 13.8617 10.9203C14.1076 11.2882 14.2388 11.7208 14.2388 12.1632C14.2388 12.7566 14.0031 13.3256 13.5835 13.7452C13.1639 14.1647 12.5949 14.4004 12.0016 14.4004Z" fill="white"/>
<path id="Vector_2" d="M20.9625 12.3492L19.0881 15.5983C19.0556 15.6551 19.0386 15.7195 19.0387 15.7849C19.0388 15.8504 19.0561 15.9146 19.0887 15.9714C19.1214 16.0281 19.1684 16.0752 19.2249 16.1082C19.2815 16.1411 19.3457 16.1587 19.4111 16.1591H20.5358C20.6012 16.159 20.6654 16.1418 20.7221 16.1091C20.7788 16.0765 20.826 16.0297 20.8589 15.9732L22.9498 12.3522C22.9827 12.2952 23 12.2306 23 12.1648C23 12.0989 22.9827 12.0343 22.9498 11.9773L20.862 8.35329C20.8287 8.29637 20.7811 8.24921 20.7238 8.21657C20.6666 8.18392 20.6017 8.16695 20.5358 8.16737H19.4142C19.3487 8.16779 19.2845 8.18535 19.228 8.21829C19.1714 8.25123 19.1245 8.2984 19.0918 8.35512C19.0591 8.41183 19.0419 8.47611 19.0417 8.54156C19.0416 8.60701 19.0586 8.67135 19.0911 8.72819L20.9625 11.9773C20.9949 12.0339 21.0119 12.098 21.0119 12.1632C21.0119 12.2284 20.9949 12.2925 20.9625 12.3492Z" fill="white"/>
<path id="Vector_3" d="M3.46725 16.1591H4.5889C4.65435 16.1587 4.71855 16.1411 4.77511 16.1082C4.83167 16.0752 4.87862 16.0281 4.91129 15.9713C4.94396 15.9146 4.96122 15.8503 4.96134 15.7849C4.96146 15.7194 4.94445 15.6551 4.91198 15.5983L3.04054 12.3492C3.00764 12.2922 2.99031 12.2275 2.99031 12.1617C2.99031 12.0959 3.00764 12.0312 3.04054 11.9743L4.91503 8.72818C4.94749 8.67135 4.96451 8.607 4.96439 8.54155C4.96427 8.4761 4.94701 8.41182 4.91434 8.35511C4.88167 8.29839 4.83472 8.25122 4.77816 8.21828C4.7216 8.18535 4.6574 8.16779 4.59195 8.16736H3.46725C3.40186 8.16748 3.33764 8.18471 3.28097 8.21732C3.22429 8.24994 3.17713 8.29681 3.14417 8.35328L1.05023 11.9773C1.01732 12.0343 1 12.0989 1 12.1647C1 12.2306 1.01732 12.2952 1.05023 12.3522L3.14112 15.9732C3.17434 16.0301 3.22198 16.0773 3.27924 16.1099C3.3365 16.1425 3.40135 16.1595 3.46725 16.1591Z" fill="white"/>
</g>
</g>
</svg>
