<svg width="24" height="24" viewBox="0 0 24 24" fill="none" xmlns="http://www.w3.org/2000/svg">
<g id="Frame 14">
<g id="Group">
<path id="Vector" d="M14.8398 17.332H9.31641C9.24389 17.332 9.17434 17.3032 9.12306 17.2519C9.07178 17.2007 9.04297 17.1311 9.04297 17.0586C9.04297 16.9861 9.07178 16.9165 9.12306 16.8652C9.17434 16.814 9.24389 16.7852 9.31641 16.7852H14.8398C14.9124 16.7852 14.9819 16.814 15.0332 16.8652C15.0845 16.9165 15.1133 16.9861 15.1133 17.0586C15.1133 17.1311 15.0845 17.2007 15.0332 17.2519C14.9819 17.3032 14.9124 17.332 14.8398 17.332Z" fill="white"/>
<path id="Vector_2" d="M13.1418 14.6551H11.0254V17.0559H13.1418V14.6551Z" fill="white"/>
<g id="Group_2">
<path id="Vector_3" d="M17.9734 12.875C17.9057 12.8752 17.8385 12.8617 17.7761 12.8354C17.7136 12.8091 17.657 12.7705 17.6098 12.7219L13.8965 8.86368L11.4 11.4887C11.3126 11.5809 11.1936 11.6367 11.0668 11.6448C10.94 11.653 10.8148 11.6128 10.7164 11.5324L8.82969 10.0094L6.83086 12.6645C6.78402 12.7269 6.72336 12.7777 6.65362 12.8128C6.58389 12.8479 6.50698 12.8664 6.42891 12.8668H3V14.4227C3.00072 14.6008 3.07182 14.7715 3.19781 14.8975C3.3238 15.0235 3.49448 15.0946 3.67266 15.0953H20.4973C20.6754 15.0946 20.8461 15.0235 20.9721 14.8975C21.0981 14.7715 21.1692 14.6008 21.1699 14.4227V12.875H17.9734Z" fill="white"/>
<path id="Vector_4" d="M6.17461 11.8578L8.3375 8.98672C8.37824 8.93283 8.42936 8.88765 8.48785 8.85384C8.54634 8.82003 8.611 8.79828 8.67803 8.78987C8.74506 8.78146 8.8131 8.78656 8.87812 8.80487C8.94315 8.82318 9.00385 8.85433 9.05664 8.89648L10.9871 10.4551L13.5273 7.78359C13.5744 7.73451 13.6308 7.69541 13.6933 7.66863C13.7558 7.64185 13.823 7.62794 13.891 7.62773C13.9588 7.62759 14.0259 7.64107 14.0884 7.66737C14.1509 7.69368 14.2074 7.73227 14.2547 7.78086L18.1867 11.8551H21.1699V5.67266C21.1692 5.49448 21.0981 5.3238 20.9721 5.19781C20.8461 5.07182 20.6754 5.00072 20.4973 5H3.67266C3.49448 5.00072 3.3238 5.07182 3.19781 5.19781C3.07182 5.3238 3.00072 5.49448 3 5.67266V11.8578H6.17461Z" fill="white"/>
</g>
</g>
</g>
</svg>
