<svg width="20" height="20" viewBox="0 0 20 20" fill="none" xmlns="http://www.w3.org/2000/svg">
<g id="server-error-regular">
<path id="Vector" d="M13.7501 17.6559H6.25006C5.71153 17.6553 5.19524 17.4411 4.81444 17.0603C4.43364 16.6795 4.21943 16.1632 4.21881 15.6247V12.9684H10.9939L10.0564 12.0309H4.21881V6.19344L3.28131 5.25598V15.6247C3.2822 16.4118 3.59527 17.1664 4.15182 17.7229C4.70838 18.2795 5.46297 18.5926 6.25006 18.5934H13.7501C14.5122 18.5924 15.2445 18.2967 15.7936 17.7681L15.131 17.1055C14.7575 17.458 14.2636 17.6548 13.7501 17.6559Z" fill="#CE3A3A"/>
<path id="Vector_2" d="M6.56284 5.46838C6.99431 5.46838 7.34409 5.11861 7.34409 4.68713C7.34409 4.25566 6.99431 3.90588 6.56284 3.90588C6.13136 3.90588 5.78159 4.25566 5.78159 4.68713C5.78159 5.11861 6.13136 5.46838 6.56284 5.46838Z" fill="#CE3A3A"/>
<path id="Vector_3" d="M17.8315 17.1683L16.6793 16.0161C16.7012 15.8867 16.7144 15.7559 16.7188 15.6248V4.37476C16.7179 3.58767 16.4049 2.83307 15.8483 2.27652C15.2917 1.71996 14.5372 1.4069 13.7501 1.40601H6.25006C5.71379 1.40793 5.18812 1.55554 4.72923 1.83304C4.27034 2.11055 3.89548 2.50753 3.6447 2.98155L2.83148 2.16833C2.74735 2.08306 2.63356 2.03355 2.51383 2.03011C2.39409 2.02667 2.27765 2.06957 2.18876 2.14987C2.09988 2.23017 2.04541 2.34167 2.03671 2.46114C2.028 2.58061 2.06574 2.69882 2.14205 2.79116C2.15017 2.80497 2.15905 2.81832 2.16864 2.83116L17.1686 17.8312C17.1817 17.841 17.1954 17.85 17.2095 17.8583C17.3019 17.9346 17.4201 17.9722 17.5396 17.9634C17.6591 17.9546 17.7705 17.9 17.8507 17.811C17.9309 17.722 17.9737 17.6055 17.9701 17.4858C17.9665 17.3661 17.9169 17.2523 17.8315 17.1683V17.1683ZM4.34767 3.68452C4.48879 3.29276 4.74705 2.95392 5.08739 2.71401C5.42773 2.4741 5.83366 2.34474 6.25006 2.34351H13.7501C14.2886 2.34413 14.8049 2.55833 15.1857 2.93913C15.5665 3.31993 15.7807 3.83623 15.7813 4.37476V7.03101H7.69415L4.34767 3.68452ZM8.63165 7.96851H15.7813V12.031H12.6942L8.63165 7.96851ZM13.6317 12.9685H15.7813V15.1181L13.6317 12.9685Z" fill="#CE3A3A"/>
</g>
</svg>
