<svg width="20" height="20" viewBox="0 0 20 20" fill="none" xmlns="http://www.w3.org/2000/svg">
<path d="M16.2501 4.53149H3.75012C3.6258 4.53149 3.50657 4.58088 3.41867 4.66879C3.33076 4.7567 3.28137 4.87592 3.28137 5.00024C3.28137 5.12456 3.33076 5.24379 3.41867 5.3317C3.50657 5.41961 3.6258 5.46899 3.75012 5.46899H16.2501C16.3744 5.46899 16.4937 5.41961 16.5816 5.3317C16.6695 5.24379 16.7189 5.12456 16.7189 5.00024C16.7189 4.87592 16.6695 4.7567 16.5816 4.66879C16.4937 4.58088 16.3744 4.53149 16.2501 4.53149Z" fill="#00E0FF"/>
<path d="M14.3751 9.53149H5.62512C5.5008 9.53149 5.38157 9.58088 5.29367 9.66879C5.20576 9.7567 5.15637 9.87592 5.15637 10.0002C5.15637 10.1246 5.20576 10.2438 5.29367 10.3317C5.38157 10.4196 5.5008 10.469 5.62512 10.469H14.3751C14.4994 10.469 14.6187 10.4196 14.7066 10.3317C14.7945 10.2438 14.8439 10.1246 14.8439 10.0002C14.8439 9.87592 14.7945 9.7567 14.7066 9.66879C14.6187 9.58088 14.4994 9.53149 14.3751 9.53149Z" fill="#00E0FF"/>
<path d="M13.1251 14.5315H6.87512C6.7508 14.5315 6.63157 14.5809 6.54367 14.6688C6.45576 14.7567 6.40637 14.8759 6.40637 15.0002C6.40637 15.1246 6.45576 15.2438 6.54367 15.3317C6.63157 15.4196 6.7508 15.469 6.87512 15.469H13.1251C13.2494 15.469 13.3687 15.4196 13.4566 15.3317C13.5445 15.2438 13.5939 15.1246 13.5939 15.0002C13.5939 14.8759 13.5445 14.7567 13.4566 14.6688C13.3687 14.5809 13.2494 14.5315 13.1251 14.5315Z" fill="#00E0FF"/>
</svg>
