<svg width="24" height="24" viewBox="0 0 24 24" fill="none" xmlns="http://www.w3.org/2000/svg">
<g id="Frame 10">
<g id="Group">
<path id="Vector" d="M21.4192 11.6281L19.563 8.40625H15.7786L17.9942 12.2531L17.3974 13.2938L15.1442 17.2188L14.4474 18.4281L13.2349 20.5219H16.3099C16.528 20.5206 16.742 20.4622 16.9306 20.3525C17.1192 20.2429 17.2758 20.0858 17.3849 19.8969L21.4192 12.8781C21.5261 12.69 21.5822 12.4773 21.5822 12.2609C21.5822 12.0446 21.5261 11.8319 21.4192 11.6438" fill="white"/>
<path id="Vector_2" d="M9.43799 17.2188L6.58799 12.2531L4.69424 8.97501L3.16299 11.6281C3.05616 11.8163 3 12.0289 3 12.2453C3 12.4617 3.05616 12.6744 3.16299 12.8625L7.19112 19.9C7.30019 20.0889 7.4568 20.246 7.64539 20.3557C7.83398 20.4653 8.04798 20.5237 8.26612 20.525H11.963L13.8599 17.2188H9.43799Z" fill="white"/>
<path id="Vector_3" d="M18.9318 7.30625L17.3943 4.625C17.2852 4.43608 17.1286 4.27899 16.94 4.16934C16.7514 4.0597 16.5374 4.00132 16.3193 4H8.26301C8.04487 4.00132 7.83087 4.0597 7.64228 4.16934C7.45369 4.27899 7.29708 4.43608 7.18801 4.625L5.32239 7.87812L7.21926 11.1625L9.43801 7.30625H18.9318Z" fill="white"/>
</g>
</g>
</svg>
