<svg width="18" height="18" viewBox="0 0 18 18" fill="none" xmlns="http://www.w3.org/2000/svg">
<g id="Group 6611">
<path id="Vector" d="M14.625 0.40625H5.875C5.1633 0.408297 4.4761 0.666333 3.93895 1.13321C3.40179 1.6001 3.05054 2.24465 2.94937 2.94913C2.24482 3.05024 1.60016 3.4015 1.13323 3.93872C0.66629 4.47593 0.408245 5.16322 0.40625 5.875V14.625C0.407143 15.4121 0.720208 16.1667 1.27676 16.7232C1.83332 17.2798 2.58791 17.5929 3.375 17.5938H12.125C12.8367 17.5917 13.524 17.3337 14.0612 16.8668C14.5984 16.3999 14.9496 15.7553 15.0507 15.0507C15.7553 14.9496 16.3999 14.5984 16.8668 14.0612C17.3337 13.524 17.5917 12.8367 17.5938 12.125V3.375C17.5929 2.58791 17.2798 1.83332 16.7232 1.27676C16.1667 0.720208 15.4121 0.407143 14.625 0.40625ZM14.1562 14.625C14.1556 15.1635 13.9414 15.6798 13.5606 16.0606C13.1798 16.4414 12.6635 16.6556 12.125 16.6562H3.375C2.83647 16.6556 2.32018 16.4414 1.93938 16.0606C1.55859 15.6798 1.34438 15.1635 1.34375 14.625V5.875C1.34438 5.33647 1.55859 4.82018 1.93938 4.43938C2.32018 4.05859 2.83647 3.84438 3.375 3.84375H12.125C12.6635 3.84438 13.1798 4.05859 13.5606 4.43938C13.9414 4.82018 14.1556 5.33647 14.1562 5.875V14.625ZM16.6562 12.125C16.6551 12.5813 16.5003 13.024 16.2169 13.3816C15.9334 13.7392 15.5378 13.991 15.0938 14.0963V5.875C15.0929 5.08791 14.7798 4.33332 14.2232 3.77676C13.6667 3.22021 12.9121 2.90714 12.125 2.90625H3.90381C4.00912 2.46225 4.26085 2.06664 4.61845 1.78318C4.97605 1.49972 5.41868 1.34493 5.875 1.34375H14.625C15.1635 1.34438 15.6798 1.55859 16.0606 1.93938C16.4414 2.32018 16.6556 2.83647 16.6562 3.375V12.125Z" fill="#00E0FF"/>
<path id="Vector_2" d="M11.5 6.65796H3.3797C3.25538 6.65796 3.13615 6.70735 3.04824 6.79525C2.96034 6.88316 2.91095 7.00239 2.91095 7.12671C2.91095 7.25103 2.96034 7.37026 3.04824 7.45817C3.13615 7.54607 3.25538 7.59546 3.3797 7.59546H11.5C11.6243 7.59546 11.7436 7.54607 11.8315 7.45817C11.9194 7.37026 11.9688 7.25103 11.9688 7.12671C11.9688 7.00239 11.9194 6.88316 11.8315 6.79525C11.7436 6.70735 11.6243 6.65796 11.5 6.65796Z" fill="#00E0FF"/>
<path id="Vector_3" d="M11.5 9.78125H3.375C3.25068 9.78125 3.13145 9.83064 3.04354 9.91854C2.95564 10.0065 2.90625 10.1257 2.90625 10.25C2.90625 10.3743 2.95564 10.4935 3.04354 10.5815C3.13145 10.6694 3.25068 10.7188 3.375 10.7188H11.5C11.6243 10.7188 11.7435 10.6694 11.8315 10.5815C11.9194 10.4935 11.9688 10.3743 11.9688 10.25C11.9688 10.1257 11.9194 10.0065 11.8315 9.91854C11.7435 9.83064 11.6243 9.78125 11.5 9.78125Z" fill="#00E0FF"/>
<path id="Vector_4" d="M7.125 12.9062H3.375C3.25068 12.9062 3.13145 12.9556 3.04354 13.0435C2.95564 13.1315 2.90625 13.2507 2.90625 13.375C2.90625 13.4993 2.95564 13.6185 3.04354 13.7065C3.13145 13.7944 3.25068 13.8438 3.375 13.8438H7.125C7.24932 13.8438 7.36855 13.7944 7.45646 13.7065C7.54436 13.6185 7.59375 13.4993 7.59375 13.375C7.59375 13.2507 7.54436 13.1315 7.45646 13.0435C7.36855 12.9556 7.24932 12.9062 7.125 12.9062Z" fill="#00E0FF"/>
</g>
</svg>
