<svg width="24" height="24" viewBox="0 0 24 24" fill="none" xmlns="http://www.w3.org/2000/svg">
<g id="Frame 11">
<path id="Vector" d="M17.6812 15.6031L19.9656 16.9219L20.1469 14.5L17.4031 12.9156L15.6219 14.0719L12.8 12.4438V9.2L14.7156 8.22188V5.05312L12.5281 4V6.6375L11.5906 7.16563L10.6531 6.6375V4L8.46563 5.05312V8.22188L10.3594 9.1875V12.4438L7.54688 14.0656L5.74375 12.8969L3 14.4812L3.18125 16.9031L5.46563 15.5844L6.39063 16.1313L6.40313 17.2062L4.11875 18.5281L6.125 19.8937L8.86875 18.3094L8.75938 16.1875L11.5781 14.5594L14.3906 16.1812L14.2781 18.3281L17.0219 19.9125L19.0281 18.5469L16.7437 17.2281L16.7563 16.15L17.6812 15.6031Z" fill="white"/>
</g>
</svg>
