<svg width="16" height="16" viewBox="0 0 16 16" fill="none" xmlns="http://www.w3.org/2000/svg">
<g id="Group 6170">
<path id="Vector" d="M12.766 0H3.23404C2.37662 0.000973096 1.55459 0.342014 0.948304 0.948304C0.342014 1.55459 0.000973096 2.37662 0 3.23404V12.766C0.000973096 13.6234 0.342014 14.4454 0.948304 15.0517C1.55459 15.658 2.37662 15.999 3.23404 16H12.766C13.6234 15.999 14.4454 15.658 15.0517 15.0517C15.658 14.4454 15.999 13.6234 16 12.766V3.23404C15.999 2.37662 15.658 1.55459 15.0517 0.948304C14.4454 0.342014 13.6234 0.000973096 12.766 0ZM14.9787 12.766C14.978 13.3526 14.7447 13.915 14.3299 14.3299C13.915 14.7447 13.3526 14.978 12.766 14.9787H3.23404C2.64739 14.978 2.08496 14.7447 1.67013 14.3299C1.2553 13.915 1.02195 13.3526 1.02128 12.766V3.23404C1.02196 2.64739 1.2553 2.08496 1.67013 1.67013C2.08496 1.2553 2.64739 1.02196 3.23404 1.02128H12.766C13.3526 1.02196 13.915 1.2553 14.3299 1.67013C14.7447 2.08496 14.978 2.64739 14.9787 3.23404V12.766Z" fill="#CE3A3A"/>
<path id="Vector_2" d="M8.00001 3.4043C7.31423 3.40363 6.63704 3.55691 6.01839 3.85283C5.39974 4.14876 4.85541 4.57978 4.42554 5.11411V3.91494C4.42554 3.77951 4.37174 3.64963 4.27598 3.55386C4.18022 3.4581 4.05033 3.4043 3.9149 3.4043C3.77947 3.4043 3.64959 3.4581 3.55383 3.55386C3.45807 3.64963 3.40427 3.77951 3.40427 3.91494V6.63834C3.4043 6.77376 3.45811 6.90362 3.55387 6.99938C3.64962 7.09514 3.77949 7.14895 3.9149 7.14898H6.63831C6.77374 7.14898 6.90362 7.09518 6.99939 6.99942C7.09515 6.90365 7.14895 6.77377 7.14895 6.63834C7.14895 6.50291 7.09515 6.37303 6.99939 6.27727C6.90362 6.1815 6.77374 6.1277 6.63831 6.1277H4.95559C5.38054 5.43765 6.02743 4.91255 6.79012 4.63857C7.5528 4.36459 8.38596 4.35802 9.15288 4.61992C9.91979 4.88182 10.5749 5.39664 11.0107 6.07989C11.4465 6.76315 11.6371 7.57425 11.5512 8.38008C11.4653 9.18592 11.108 9.93862 10.538 10.5147C9.96794 11.0907 9.21903 11.4559 8.41414 11.5502C7.60925 11.6446 6.79619 11.4625 6.1084 11.0339C5.42061 10.6053 4.89894 9.95566 4.629 9.19153C4.60677 9.12816 4.57226 9.06979 4.52744 9.01978C4.48262 8.96976 4.42837 8.92908 4.3678 8.90006C4.30723 8.87104 4.24154 8.85426 4.17447 8.85067C4.10741 8.84708 4.0403 8.85676 3.97698 8.87915C3.91366 8.90154 3.85538 8.9362 3.80548 8.98114C3.75557 9.02609 3.71503 9.08044 3.68616 9.14108C3.6573 9.20172 3.64068 9.26746 3.63726 9.33454C3.63384 9.40161 3.64369 9.4687 3.66624 9.53196C3.94702 10.3264 4.44081 11.0284 5.09362 11.5612C5.74642 12.094 6.53313 12.437 7.36775 12.5529C8.20237 12.6687 9.05278 12.5529 9.82601 12.2181C10.5993 11.8832 11.2656 11.3423 11.7521 10.6543C12.2387 9.96637 12.5267 9.1579 12.5848 8.31729C12.6429 7.47667 12.4688 6.63626 12.0815 5.88792C11.6942 5.13958 11.1087 4.51211 10.3888 4.07409C9.66902 3.63607 8.84263 3.40436 8.00001 3.4043Z" fill="#CE3A3A"/>
</g>
</svg>
