<svg width="13" height="13" viewBox="0 0 13 13" fill="none" xmlns="http://www.w3.org/2000/svg">
<g id="Group 6613">
<path id="Vector" d="M6.5 1.89348e-05C5.58936 -3.94129e-05 4.68894 0.191946 3.85752 0.563445C3.0261 0.934943 2.28237 1.4776 1.67487 2.156V0.355491C1.67487 0.26146 1.63752 0.17128 1.57103 0.104789C1.50454 0.0382992 1.41436 0.000945499 1.32033 0.000945499C1.2263 0.000945499 1.13612 0.0382992 1.06963 0.104789C1.00314 0.17128 0.965782 0.26146 0.965782 0.355491V3.19185C0.965807 3.28588 1.00317 3.37604 1.06965 3.44253C1.13614 3.50901 1.2263 3.54637 1.32033 3.5464H4.15669C4.25072 3.5464 4.3409 3.50905 4.40739 3.44256C4.47388 3.37607 4.51124 3.28589 4.51124 3.19185C4.51124 3.09782 4.47388 3.00764 4.40739 2.94115C4.3409 2.87466 4.25072 2.83731 4.15669 2.83731H2.02104C2.88545 1.78331 4.09429 1.06841 5.43435 0.818686C6.77441 0.568964 8.15961 0.800464 9.34565 1.47236C10.5317 2.14425 11.4424 3.21338 11.9171 4.49117C12.3918 5.76897 12.4001 7.17336 11.9404 8.45665C11.4807 9.73994 10.5827 10.8197 9.40462 11.5055C8.22656 12.1913 6.84418 12.439 5.50128 12.2051C4.15837 11.9711 2.94121 11.2705 2.06447 10.2267C1.18772 9.18296 0.707711 7.86313 0.709091 6.5C0.709091 6.40597 0.671737 6.31579 0.605247 6.2493C0.538757 6.18281 0.448577 6.14545 0.354545 6.14545C0.260514 6.14545 0.170334 6.18281 0.103844 6.2493C0.0373538 6.31579 0 6.40597 0 6.5C0 7.78558 0.381218 9.04229 1.09545 10.1112C1.80968 11.1801 2.82484 12.0132 4.01256 12.5052C5.20028 12.9972 6.50721 13.1259 7.76809 12.8751C9.02896 12.6243 10.1872 12.0052 11.0962 11.0962C12.0052 10.1872 12.6243 9.02896 12.8751 7.76809C13.1259 6.50721 12.9972 5.20028 12.5052 4.01256C12.0132 2.82484 11.1801 1.80968 10.1112 1.09545C9.04228 0.381218 7.78558 0 6.5 0V1.89348e-05Z" fill="#F99A0B"/>
<circle id="Ellipse 385" cx="6.5" cy="6.5" r="1.5" fill="#F99A0B"/>
</g>
</svg>
