<svg width="15" height="15" viewBox="0 0 15 15" fill="none" xmlns="http://www.w3.org/2000/svg">
<g id="box-regular">
<path id="Vector" d="M13.3 3.6019C13.2901 3.5892 13.2793 3.57719 13.2677 3.56597C13.1889 3.4711 13.0891 3.3958 12.9763 3.34596L7.82596 1.11846C7.72521 1.07645 7.61711 1.0549 7.50795 1.05505C7.39879 1.05521 7.29075 1.07707 7.19012 1.11937L2.0293 3.34412C1.91522 3.39407 1.81421 3.46969 1.73415 3.56508C1.72169 3.57696 1.71014 3.58976 1.69959 3.60336C1.58694 3.74519 1.52495 3.92061 1.52347 4.10172V10.9769C1.52317 11.1388 1.57095 11.2972 1.66076 11.432C1.75056 11.5668 1.87834 11.6719 2.02792 11.734L7.17502 13.8823C7.37697 13.9659 7.60386 13.9659 7.80582 13.8823L12.9712 11.7336C13.121 11.6717 13.249 11.5666 13.339 11.4318C13.429 11.297 13.4769 11.1385 13.4766 10.9764V4.10127C13.475 3.91978 13.4129 3.74402 13.3 3.6019ZM7.53528 5.73319C7.5064 5.74509 7.47398 5.74509 7.4451 5.73319L5.57513 4.95262L10.1737 2.90001L12.2197 3.78484L7.53528 5.73319ZM7.46433 1.76667C7.47881 1.76057 7.49438 1.75746 7.5101 1.75752C7.52376 1.75753 7.53729 1.76017 7.54994 1.7653L9.29791 2.52124L4.6841 4.58063L2.7805 3.78601L7.46433 1.76667ZM2.22659 10.9769V4.31701L7.14847 6.3714V13.1092L2.29846 11.0849C2.27715 11.076 2.25895 11.061 2.24616 11.0418C2.23337 11.0226 2.22656 11 2.22659 10.9769ZM12.7011 11.0845L7.85159 13.1018V6.36308L12.7735 4.31596V10.9764C12.7734 10.9996 12.7666 11.0222 12.7537 11.0414C12.7408 11.0606 12.7225 11.0756 12.7011 11.0845Z" fill="#00E0FF"/>
</g>
</svg>
