<svg width="20" height="20" viewBox="0 0 20 20" fill="none" xmlns="http://www.w3.org/2000/svg">
<g id="secure-lock-regular">
<path id="Vector" d="M14.3752 7.65625H13.5946V5.28381C13.5946 3.07312 12.0492 1.40625 10.0002 1.40625C7.91833 1.40625 6.40774 3.03711 6.40774 5.28381V7.65625H5.62524C5.00388 7.65703 4.4082 7.90421 3.96883 8.34358C3.52946 8.78295 3.28228 9.37864 3.28149 10V16.25C3.28228 16.8714 3.52946 17.467 3.96883 17.9064C4.4082 18.3458 5.00388 18.593 5.62524 18.5938H14.3752C14.9966 18.593 15.5923 18.3458 16.0317 17.9064C16.471 17.467 16.7182 16.8714 16.719 16.25V10C16.7182 9.37864 16.471 8.78295 16.0317 8.34358C15.5923 7.90421 14.9966 7.65703 14.3752 7.65625ZM7.34524 5.28381C7.34524 3.58032 8.46158 2.34375 10.0002 2.34375C11.5396 2.34375 12.6571 3.58032 12.6571 5.28381V7.65625H7.34524V5.28381ZM15.7815 16.25C15.781 16.6228 15.6327 16.9802 15.369 17.2438C15.1054 17.5074 14.748 17.6557 14.3752 17.6562H5.62524C5.25244 17.6557 4.89505 17.5074 4.63144 17.2438C4.36783 16.9802 4.21951 16.6228 4.21899 16.25V10C4.21951 9.6272 4.36783 9.26981 4.63144 9.0062C4.89505 8.74258 5.25244 8.59426 5.62524 8.59375H14.3752C14.748 8.59426 15.1054 8.74258 15.3691 9.00619C15.6327 9.26981 15.781 9.6272 15.7815 10V16.25Z" fill="#F99A0B"/>
</g>
</svg>
