<svg width="18" height="18" viewBox="0 0 18 18" fill="none" xmlns="http://www.w3.org/2000/svg">
<g id="Product Icons">
<path id="Vector" d="M9.46899 8.80676V4.00024C9.46899 3.87592 9.41961 3.7567 9.3317 3.66879C9.24379 3.58088 9.12456 3.53149 9.00024 3.53149C8.87592 3.53149 8.7567 3.58088 8.66879 3.66879C8.58088 3.7567 8.53149 3.87592 8.53149 4.00024V9.00024C8.53389 9.12754 8.58552 9.24896 8.67554 9.33899L11.7938 12.4567C11.8817 12.5446 12.0009 12.5939 12.1252 12.5939C12.2496 12.5939 12.3688 12.5446 12.4567 12.4567C12.5446 12.3688 12.594 12.2495 12.5939 12.1252C12.5939 12.0009 12.5446 11.8817 12.4567 11.7938L9.46899 8.80676Z" fill="#00E0FF"/>
<path id="Vector_2" d="M9.00025 0.406494C7.30056 0.406494 5.63905 0.910509 4.22582 1.8548C2.81258 2.7991 1.7111 4.14126 1.06066 5.71156C0.410218 7.28186 0.240033 9.00978 0.571625 10.6768C0.903216 12.3438 1.72169 13.8751 2.92355 15.0769C4.12541 16.2788 5.65667 17.0973 7.32369 17.4289C8.99072 17.7605 10.7186 17.5903 12.2889 16.9398C13.8592 16.2894 15.2014 15.1879 16.1457 13.7747C17.09 12.3614 17.594 10.6999 17.594 9.00024C17.5915 6.72181 16.6853 4.53742 15.0742 2.92633C13.4631 1.31524 11.2787 0.409015 9.00025 0.406494ZM9.00025 16.6565C7.48598 16.6565 6.00573 16.2075 4.74666 15.3662C3.4876 14.5249 2.50628 13.3292 1.9268 11.9302C1.34731 10.5312 1.19569 8.99175 1.49111 7.50658C1.78653 6.02142 2.51572 4.6572 3.58646 3.58646C4.65721 2.51571 6.02142 1.78653 7.50659 1.49111C8.99176 1.19569 10.5312 1.34731 11.9302 1.92679C13.3292 2.50627 14.5249 3.4876 15.3662 4.74666C16.2075 6.00572 16.6565 7.48598 16.6565 9.00024C16.6542 11.0301 15.8469 12.9762 14.4115 14.4115C12.9762 15.8469 11.0301 16.6542 9.00025 16.6565Z" fill="#00E0FF"/>
</g>
</svg>
