<svg width="11" height="14" viewBox="0 0 11 14" fill="none" xmlns="http://www.w3.org/2000/svg">
<path id="Vector" d="M10.8476 5.14599L5.85348 0.14613C5.7596 0.0525427 5.63251 0 5.50002 0C5.36754 0 5.24045 0.0525427 5.14657 0.14613L0.152474 5.14599C0.104772 5.19211 0.0667237 5.24728 0.0405483 5.30829C0.0143729 5.36929 0.000595125 5.43491 1.88575e-05 5.5013C-0.000557409 5.56769 0.0120793 5.63353 0.0371918 5.69498C0.0623043 5.75644 0.0993896 5.81226 0.146284 5.85921C0.193178 5.90616 0.248942 5.94329 0.310322 5.96843C0.371702 5.99357 0.437468 6.00622 0.503784 6.00565C0.5701 6.00507 0.635637 5.99128 0.696571 5.96507C0.757505 5.93886 0.812616 5.90077 0.858689 5.85301L5.00053 1.70639V13.5C5.00053 13.6326 5.05315 13.7598 5.14681 13.8535C5.24048 13.9473 5.36751 14 5.49997 14C5.63244 14 5.75947 13.9473 5.85314 13.8535C5.9468 13.7598 5.99942 13.6326 5.99942 13.5V1.70639L10.1413 5.85301C10.1874 5.90077 10.2425 5.93886 10.3034 5.96507C10.3644 5.99128 10.4299 6.00507 10.4962 6.00565C10.5625 6.00622 10.6283 5.99357 10.6897 5.96843C10.7511 5.94329 10.8068 5.90616 10.8537 5.85921C10.9006 5.81226 10.9377 5.75644 10.9628 5.69498C10.9879 5.63353 11.0006 5.56769 11 5.5013C10.9994 5.43491 10.9856 5.36929 10.9595 5.30829C10.9333 5.24728 10.8952 5.19211 10.8475 5.14599H10.8476Z" fill="#11EE9E"/>
</svg>
