<svg width="24" height="24" viewBox="0 0 24 24" fill="none" xmlns="http://www.w3.org/2000/svg">
<g id="ethernet-light">
<path id="Vector" d="M20.2501 11.6252H12.3751V8.62524H13.4949C13.7932 8.62492 14.0792 8.50629 14.2901 8.29538C14.501 8.08447 14.6196 7.79851 14.6199 7.50024V4.50024C14.6196 4.20198 14.501 3.91602 14.2901 3.70511C14.0792 3.4942 13.7932 3.37557 13.4949 3.37524H10.4949C10.1967 3.37557 9.91072 3.4942 9.69981 3.70511C9.4889 3.91602 9.37027 4.20198 9.36995 4.50024V7.50024C9.37027 7.79851 9.4889 8.08447 9.69981 8.29538C9.91072 8.50629 10.1967 8.62492 10.4949 8.62524H11.6251V11.6252H3.75008C3.65062 11.6252 3.55524 11.6648 3.48491 11.7351C3.41459 11.8054 3.37508 11.9008 3.37508 12.0002C3.37508 12.0997 3.41459 12.1951 3.48491 12.2654C3.55524 12.3357 3.65062 12.3752 3.75008 12.3752H6.37508V15.3752H5.24495C4.94668 15.3756 4.66072 15.4942 4.44981 15.7051C4.2389 15.916 4.12027 16.202 4.11995 16.5002V19.5002C4.12027 19.7985 4.2389 20.0845 4.44981 20.2954C4.66072 20.5063 4.94668 20.6249 5.24495 20.6252H8.24495C8.54322 20.6249 8.82917 20.5063 9.04008 20.2954C9.25099 20.0845 9.36962 19.7985 9.36995 19.5002V16.5002C9.36962 16.202 9.25099 15.916 9.04008 15.7051C8.82917 15.4942 8.54322 15.3756 8.24495 15.3752H7.12508V12.3752H16.8751V15.3752H15.7449C15.4467 15.3756 15.1607 15.4942 14.9498 15.7051C14.7389 15.916 14.6203 16.202 14.6199 16.5002V19.5002C14.6203 19.7985 14.7389 20.0845 14.9498 20.2954C15.1607 20.5063 15.4467 20.6249 15.7449 20.6252H18.7449C19.0432 20.6249 19.3292 20.5063 19.5401 20.2954C19.751 20.0845 19.8696 19.7985 19.8699 19.5002V16.5002C19.8696 16.202 19.751 15.916 19.5401 15.7051C19.3292 15.4942 19.0432 15.3756 18.7449 15.3752H17.6251V12.3752H20.2501C20.3495 12.3752 20.4449 12.3357 20.5152 12.2654C20.5856 12.1951 20.6251 12.0997 20.6251 12.0002C20.6251 11.9008 20.5856 11.8054 20.5152 11.7351C20.4449 11.6648 20.3495 11.6252 20.2501 11.6252ZM10.1199 7.50024V4.50024C10.1201 4.40085 10.1597 4.30558 10.23 4.2353C10.3003 4.16501 10.3956 4.12544 10.4949 4.12524H13.4949C13.5943 4.12544 13.6896 4.16501 13.7599 4.2353C13.8302 4.30558 13.8697 4.40085 13.8699 4.50024V7.50024C13.8697 7.59964 13.8302 7.69491 13.7599 7.76519C13.6896 7.83547 13.5943 7.87505 13.4949 7.87524H10.4949C10.3956 7.87505 10.3003 7.83547 10.23 7.76519C10.1597 7.69491 10.1201 7.59964 10.1199 7.50024ZM8.61995 16.5002V19.5002C8.61975 19.5996 8.58018 19.6949 8.50989 19.7652C8.43961 19.8355 8.34434 19.875 8.24495 19.8752H5.24495C5.14555 19.875 5.05028 19.8355 4.98 19.7652C4.90972 19.6949 4.87014 19.5996 4.86995 19.5002V16.5002C4.87014 16.4008 4.90972 16.3056 4.98 16.2353C5.05028 16.165 5.14555 16.1254 5.24495 16.1252H8.24495C8.34434 16.1254 8.43961 16.165 8.50989 16.2353C8.58018 16.3056 8.61975 16.4008 8.61995 16.5002ZM19.1199 16.5002V19.5002C19.1197 19.5996 19.0802 19.6949 19.0099 19.7652C18.9396 19.8355 18.8443 19.875 18.7449 19.8752H15.7449C15.6456 19.875 15.5503 19.8355 15.48 19.7652C15.4097 19.6949 15.3701 19.5996 15.3699 19.5002V16.5002C15.3701 16.4008 15.4097 16.3056 15.48 16.2353C15.5503 16.165 15.6456 16.1254 15.7449 16.1252H18.7449C18.8443 16.1254 18.9396 16.165 19.0099 16.2353C19.0802 16.3056 19.1197 16.4008 19.1199 16.5002Z" fill="#00E0FF"/>
</g>
</svg>
