<svg width="23" height="23" viewBox="0 0 23 23" fill="none" xmlns="http://www.w3.org/2000/svg">
<g id="command_line_icon_236105 1" clip-path="url(#clip0_625_1059)">
<path id="Vector" d="M20.4445 3.19444H2.55561C2.21672 3.19444 1.89171 3.32907 1.65208 3.5687C1.41245 3.80832 1.27783 4.13333 1.27783 4.47222V18.5278C1.27783 18.8667 1.41245 19.1917 1.65208 19.4313C1.89171 19.6709 2.21672 19.8056 2.55561 19.8056H20.4445C20.7834 19.8056 21.1084 19.6709 21.348 19.4313C21.5877 19.1917 21.7223 18.8667 21.7223 18.5278V4.47222C21.7223 4.13333 21.5877 3.80832 21.348 3.5687C21.1084 3.32907 20.7834 3.19444 20.4445 3.19444ZM2.55561 4.47222H20.4445V5.87778H2.55561V4.47222ZM2.55561 18.5278V6.9H20.4445V18.5278H2.55561Z" fill="white"/>
<path id="Vector_2" d="M14.6944 14.6944H10.8611V15.9722H14.6944V14.6944Z" fill="white"/>
<path id="Vector_3" d="M4.47217 10.0178L8.81022 12.0111L4.47217 13.9981V15.4036L10.6055 12.5861V11.4297L4.47217 8.61222V10.0178Z" fill="white"/>
</g>
<defs>
<clipPath id="clip0_625_1059">
<rect width="23" height="23" fill="white"/>
</clipPath>
</defs>
</svg>
