<svg width="36" height="36" viewBox="0 0 36 36" fill="none" xmlns="http://www.w3.org/2000/svg">
<path d="M14.7745 11.1061C17.1718 11.1061 19.1153 9.16269 19.1153 6.76534C19.1153 4.36799 17.1718 2.42456 14.7745 2.42456C12.3772 2.42456 10.4337 4.36799 10.4337 6.76534C10.4337 9.16269 12.3772 11.1061 14.7745 11.1061Z" stroke="white" stroke-opacity="0.5" stroke-width="1.3674" stroke-miterlimit="10" stroke-linecap="round" stroke-linejoin="round"/>
<path d="M14.7745 9.93997C16.5278 9.93997 17.9491 8.51863 17.9491 6.76533C17.9491 5.01203 16.5278 3.5907 14.7745 3.5907C13.0212 3.5907 11.5999 5.01203 11.5999 6.76533C11.5999 8.51863 13.0212 9.93997 14.7745 9.93997Z" stroke="white" stroke-opacity="0.5" stroke-miterlimit="10" stroke-linecap="round" stroke-linejoin="round"/>
<path d="M26.5806 15.5929C25.7697 15.5929 25.1069 16.2554 25.1069 17.0667V20.5616C25.1069 20.8279 24.8875 21.0498 24.6187 21.0498C24.3439 21.0498 24.1231 20.8279 24.1231 20.5616V15.6557C24.1231 14.8398 23.4656 14.182 22.6494 14.182C21.8385 14.182 21.1771 14.8395 21.1771 15.6557V19.5764C21.1771 19.8466 20.9552 20.0646 20.6875 20.0646C20.4137 20.0646 20.1919 19.8466 20.1919 19.5764V13.1354C20.1919 12.3241 19.5344 11.6631 18.7174 11.6631C17.9023 11.6631 17.2448 12.3241 17.2448 13.1354V19.5764C17.2448 19.8466 17.0239 20.0646 16.7499 20.0646C16.4821 20.0646 16.2606 19.8466 16.2606 19.5764V7.03236C16.2606 6.21648 15.5985 5.55862 14.7872 5.55862C13.9717 5.55862 13.3142 6.21613 13.3142 7.03236V24.4914L11.3212 21.7641C10.7315 20.8582 9.57907 20.551 8.73462 21.0752C7.89405 21.6057 7.6877 22.7687 8.26901 23.6756C8.26901 23.6756 11.4796 28.5331 12.8486 30.6114C14.2158 32.6943 16.4342 34.3219 20.5816 34.3219C27.4456 34.3219 28.06 29.023 28.06 27.4389V17.0667C28.0604 16.2554 27.3969 15.5929 26.5806 15.5929Z" fill="white"/>
</svg>
